<svg width="32" height="30" viewBox="0 0 32 30" fill="none" xmlns="http://www.w3.org/2000/svg">
<g clip-path="url(#clip0_355_1302)">
<path d="M20.8163 26.25V23.75C20.8163 22.4239 20.268 21.1521 19.2921 20.2145C18.3161 19.2768 16.9925 18.75 15.6123 18.75H6.50511C5.1249 18.75 3.80122 19.2768 2.82527 20.2145C1.84931 21.1521 1.30103 22.4239 1.30103 23.75V26.25M29.9235 13.75H22.1174M16.2628 8.75C16.2628 11.5114 13.9328 13.75 11.0587 13.75C8.18454 13.75 5.8546 11.5114 5.8546 8.75C5.8546 5.98858 8.18454 3.75 11.0587 3.75C13.9328 3.75 16.2628 5.98858 16.2628 8.75Z" stroke="#940203" stroke-width="2.5" stroke-linecap="round" stroke-linejoin="round"/>
</g>
<defs>
<clipPath id="clip0_355_1302">
<rect width="31.2245" height="30" fill="white"/>
</clipPath>
</defs>
</svg>
