<svg width="32" height="34" viewBox="0 0 32 34" fill="none" xmlns="http://www.w3.org/2000/svg">
<g clip-path="url(#clip0_620_1633)">
<path d="M9.65383 28.0689H20.0499V23.8362C20.0499 22.2842 19.5409 20.9556 18.523 19.8505C17.505 18.7453 16.2813 18.1927 14.8519 18.1927C13.4224 18.1927 12.1987 18.7453 11.1807 19.8505C10.1628 20.9556 9.65383 22.2842 9.65383 23.8362V28.0689ZM4.45581 30.8907V28.0689H7.05482V23.8362C7.05482 22.4018 7.36345 21.0556 7.98072 19.7975C8.59798 18.5395 9.4589 17.5342 10.5635 16.7818C9.4589 16.0293 8.59798 15.024 7.98072 13.766C7.36345 12.5079 7.05482 11.1617 7.05482 9.72731V5.49463H4.45581V2.67285H25.2479V5.49463H22.6489V9.72731C22.6489 11.1617 22.3402 12.5079 21.723 13.766C21.1057 15.024 20.2448 16.0293 19.1402 16.7818C20.2448 17.5342 21.1057 18.5395 21.723 19.7975C22.3402 21.0556 22.6489 22.4018 22.6489 23.8362V28.0689H25.2479V30.8907H4.45581Z" fill="#D0B447"/>
<path d="M27.8219 15.3464L18.0199 25.1484L13.5645 20.693" stroke="#009951" stroke-width="2.22772" stroke-linecap="round" stroke-linejoin="round"/>
</g>
<defs>
<clipPath id="clip0_620_1633">
<rect width="31.1881" height="33.8614" fill="white"/>
</clipPath>
</defs>
</svg>
