<svg width="119" height="118" viewBox="0 0 119 118" fill="none" xmlns="http://www.w3.org/2000/svg">
<circle cx="59.3999" cy="59" r="59" fill="#D0B447"/>
<path d="M118.4 59C118.4 91.5848 91.9847 118 59.3999 118C26.8151 118 0.399902 91.5848 0.399902 59C0.399902 26.4152 26.8151 0 59.3999 0C91.9847 0 118.4 26.4152 118.4 59ZM8.6599 59C8.6599 87.0229 31.377 109.74 59.3999 109.74C87.4228 109.74 110.14 87.0229 110.14 59C110.14 30.9771 87.4228 8.26 59.3999 8.26C31.377 8.26 8.6599 30.9771 8.6599 59Z" fill="url(#paint0_linear_370_374)"/>
<g filter="url(#filter0_i_370_374)">
<path d="M70.9339 75.8207L87.4491 59.3674L70.9339 42.9141M48.9136 42.9141L32.3984 59.3674L48.9136 75.8207" stroke="#977A1A" stroke-width="6.74286" stroke-linecap="round" stroke-linejoin="round"/>
</g>
<defs>
<filter id="filter0_i_370_374" x="29.0269" y="39.5425" width="61.7935" height="43.6499" filterUnits="userSpaceOnUse" color-interpolation-filters="sRGB">
<feFlood flood-opacity="0" result="BackgroundImageFix"/>
<feBlend mode="normal" in="SourceGraphic" in2="BackgroundImageFix" result="shape"/>
<feColorMatrix in="SourceAlpha" type="matrix" values="0 0 0 0 0 0 0 0 0 0 0 0 0 0 0 0 0 0 127 0" result="hardAlpha"/>
<feOffset dy="4"/>
<feGaussianBlur stdDeviation="2"/>
<feComposite in2="hardAlpha" operator="arithmetic" k2="-1" k3="1"/>
<feColorMatrix type="matrix" values="0 0 0 0 0 0 0 0 0 0 0 0 0 0 0 0 0 0 0.25 0"/>
<feBlend mode="normal" in2="shape" result="effect1_innerShadow_370_374"/>
</filter>
<linearGradient id="paint0_linear_370_374" x1="59.3999" y1="0" x2="59.3999" y2="118" gradientUnits="userSpaceOnUse">
<stop stop-color="#F7E77B"/>
<stop offset="1" stop-color="#BF6F1A"/>
</linearGradient>
</defs>
</svg>
