    <svg width="35" height="35" viewBox="0 0 35 35" fill="none" xmlns="http://www.w3.org/2000/svg">
<path d="M34.3689 17.5653C34.3689 26.9181 26.7871 34.5 17.4345 34.5C8.08182 34.5 0.5 26.9181 0.5 17.5653C0.5 8.21253 8.08182 0.630615 17.4345 0.630615C26.7871 0.630615 34.3689 8.21253 34.3689 17.5653Z" fill="#D0B447" stroke="#F0C82D"/>
<path d="M35 17.4347C35 27.0636 27.1943 34.8694 17.5656 34.8694C7.93678 34.8694 0.131104 27.0636 0.131104 17.4347C0.131104 7.80578 7.93678 0 17.5656 0C27.1943 0 35 7.80578 35 17.4347ZM2.57193 17.4347C2.57193 25.7156 9.28481 32.4285 17.5656 32.4285C25.8463 32.4285 32.5592 25.7156 32.5592 17.4347C32.5592 9.15383 25.8463 2.44086 17.5656 2.44086C9.28481 2.44086 2.57193 9.15383 2.57193 17.4347Z" fill="url(#paint0_linear_611_1632)"/>
<g clip-path="url(#clip0_611_1632)">
<path d="M10.2065 11.2122L21.7898 13.9977L22.9881 19.9667L18.9939 23.946L13.0025 22.7522L10.2065 11.2122ZM10.2065 11.2122L16.2666 17.2496M18.195 24.7419L23.7869 19.1708L26.1835 21.5584L20.5916 27.1295L18.195 24.7419ZM18.9939 18.375C18.9939 19.254 18.2785 19.9667 17.3962 19.9667C16.5138 19.9667 15.7985 19.254 15.7985 18.375C15.7985 17.4959 16.5138 16.7832 17.3962 16.7832C18.2785 16.7832 18.9939 17.4959 18.9939 18.375Z" stroke="#977A1A" stroke-width="2" stroke-linecap="round" stroke-linejoin="round"/>
</g>
<defs>
<linearGradient id="paint0_linear_611_1632" x1="17.5656" y1="0" x2="17.5656" y2="34.8694" gradientUnits="userSpaceOnUse">
<stop stop-color="#F7E77B"/>
<stop offset="1" stop-color="#BF6F16"/>
</linearGradient>
<clipPath id="clip0_611_1632">
<rect x="8.60889" y="9.62036" width="19.1723" height="19.1008" rx="2" fill="white"/>
</clipPath>
</defs>
</svg>
