<svg width="119" height="118" viewBox="0 0 119 118" fill="none" xmlns="http://www.w3.org/2000/svg">
<path d="M116.672 59.2203C116.672 90.7525 91.1106 116.314 59.5788 116.314C28.0471 116.314 2.48552 90.7525 2.48552 59.2203C2.48552 27.688 28.0471 2.12614 59.5788 2.12614C91.1106 2.12614 116.672 27.688 116.672 59.2203Z" fill="#D0B447" stroke="#F0C82D" stroke-width="3.37143"/>
<path d="M118.8 58.7798C118.8 91.2431 92.4835 117.56 60.0207 117.56C27.558 117.56 1.2417 91.2431 1.2417 58.7798C1.2417 26.3166 27.558 0 60.0207 0C92.4835 0 118.8 26.3166 118.8 58.7798ZM9.47076 58.7798C9.47076 86.6982 32.1027 109.331 60.0207 109.331C87.9387 109.331 110.571 86.6982 110.571 58.7798C110.571 30.8615 87.9387 8.22918 60.0207 8.22918C32.1027 8.22918 9.47076 30.8615 9.47076 58.7798Z" fill="url(#paint0_linear_370_379)"/>
<g filter="url(#filter0_i_370_379)">
<path d="M59.5622 88.0073C55.6807 88.0073 52.0121 87.2645 48.5566 85.779C45.1011 84.2935 42.0834 82.2656 39.5036 79.6954C36.9238 77.1252 34.8884 74.1188 33.3973 70.6762C31.9062 67.2336 31.1606 63.5787 31.1606 59.7116C31.1606 55.7974 31.9062 52.1308 33.3973 48.7117C34.8884 45.2927 36.9238 42.298 39.5036 39.7279C42.0834 37.1577 45.1011 35.1298 48.5566 33.6443C52.0121 32.1588 55.6807 31.416 59.5622 31.416C63.4911 31.416 67.1715 32.1588 70.6034 33.6443C74.0352 35.1298 77.0411 37.1577 79.6209 39.7279C82.2007 42.298 84.2361 45.2927 85.7272 48.7117C87.2183 52.1308 87.9638 55.7974 87.9638 59.7116C87.9638 63.5787 87.2183 67.2336 85.7272 70.6762C84.2361 74.1188 82.2007 77.1252 79.6209 79.6954C77.0411 82.2656 74.0352 84.2935 70.6034 85.779C67.1715 87.2645 63.4911 88.0073 59.5622 88.0073ZM59.5622 82.2067C60.793 80.5089 61.858 78.7404 62.7574 76.9012C63.6568 75.062 64.3905 73.1049 64.9585 71.0299H54.1659C54.734 73.1049 55.4677 75.062 56.3671 76.9012C57.2664 78.7404 58.3315 80.5089 59.5622 82.2067ZM52.1778 81.0748C51.3258 79.5186 50.5802 77.9034 49.9412 76.2292C49.3022 74.555 48.7696 72.8219 48.3436 71.0299H39.9651C41.3379 73.3879 43.0538 75.4393 45.1129 77.1842C47.172 78.9291 49.527 80.226 52.1778 81.0748ZM66.9467 81.0748C69.5975 80.226 71.9524 78.9291 74.0116 77.1842C76.0707 75.4393 77.7866 73.3879 79.1593 71.0299H70.7809C70.3548 72.8219 69.8223 74.555 69.1833 76.2292C68.5442 77.9034 67.7987 79.5186 66.9467 81.0748ZM37.551 65.3708H47.2075C47.0655 64.4276 46.959 63.4962 46.888 62.5766C46.817 61.657 46.7815 60.702 46.7815 59.7116C46.7815 58.7213 46.817 57.7663 46.888 56.8467C46.959 55.9271 47.0655 54.9957 47.2075 54.0525H37.551C37.3143 54.9957 37.1368 55.9271 37.0185 56.8467C36.9001 57.7663 36.841 58.7213 36.841 59.7116C36.841 60.702 36.9001 61.657 37.0185 62.5766C37.1368 63.4962 37.3143 64.4276 37.551 65.3708ZM52.8879 65.3708H66.2366C66.3786 64.4276 66.4851 63.4962 66.5561 62.5766C66.6271 61.657 66.6626 60.702 66.6626 59.7116C66.6626 58.7213 66.6271 57.7663 66.5561 56.8467C66.4851 55.9271 66.3786 54.9957 66.2366 54.0525H52.8879C52.7459 54.9957 52.6393 55.9271 52.5683 56.8467C52.4973 57.7663 52.4618 58.7213 52.4618 59.7116C52.4618 60.702 52.4973 61.657 52.5683 62.5766C52.6393 63.4962 52.7459 64.4276 52.8879 65.3708ZM71.9169 65.3708H81.5735C81.8102 64.4276 81.9877 63.4962 82.106 62.5766C82.2243 61.657 82.2835 60.702 82.2835 59.7116C82.2835 58.7213 82.2243 57.7663 82.106 56.8467C81.9877 55.9271 81.8102 54.9957 81.5735 54.0525H71.9169C72.0589 54.9957 72.1654 55.9271 72.2365 56.8467C72.3075 57.7663 72.343 58.7213 72.343 59.7116C72.343 60.702 72.3075 61.657 72.2365 62.5766C72.1654 63.4962 72.0589 64.4276 71.9169 65.3708ZM70.7809 48.3934H79.1593C77.7866 46.0354 76.0707 43.984 74.0116 42.2391C71.9524 40.4942 69.5975 39.1973 66.9467 38.3484C67.7987 39.9047 68.5442 41.5199 69.1833 43.1941C69.8223 44.8682 70.3548 46.6013 70.7809 48.3934ZM54.1659 48.3934H64.9585C64.3905 46.3184 63.6568 44.3613 62.7574 42.522C61.858 40.6828 60.793 38.9144 59.5622 37.2166C58.3315 38.9144 57.2664 40.6828 56.3671 42.522C55.4677 44.3613 54.734 46.3184 54.1659 48.3934ZM39.9651 48.3934H48.3436C48.7696 46.6013 49.3022 44.8682 49.9412 43.1941C50.5802 41.5199 51.3258 39.9047 52.1778 38.3484C49.527 39.1973 47.172 40.4942 45.1129 42.2391C43.0538 43.984 41.3379 46.0354 39.9651 48.3934Z" fill="#977A1A"/>
</g>
<defs>
<filter id="filter0_i_370_379" x="31.1606" y="31.416" width="56.8032" height="60.5913" filterUnits="userSpaceOnUse" color-interpolation-filters="sRGB">
<feFlood flood-opacity="0" result="BackgroundImageFix"/>
<feBlend mode="normal" in="SourceGraphic" in2="BackgroundImageFix" result="shape"/>
<feColorMatrix in="SourceAlpha" type="matrix" values="0 0 0 0 0 0 0 0 0 0 0 0 0 0 0 0 0 0 127 0" result="hardAlpha"/>
<feOffset dy="4"/>
<feGaussianBlur stdDeviation="2"/>
<feComposite in2="hardAlpha" operator="arithmetic" k2="-1" k3="1"/>
<feColorMatrix type="matrix" values="0 0 0 0 0 0 0 0 0 0 0 0 0 0 0 0 0 0 0.25 0"/>
<feBlend mode="normal" in2="shape" result="effect1_innerShadow_370_379"/>
</filter>
<linearGradient id="paint0_linear_370_379" x1="60.0207" y1="0" x2="60.0207" y2="117.56" gradientUnits="userSpaceOnUse">
<stop stop-color="#F7E77B"/>
<stop offset="1" stop-color="#BF6F16"/>
</linearGradient>
</defs>
</svg>
