<svg width="32" height="34" viewBox="0 0 32 34" fill="none" xmlns="http://www.w3.org/2000/svg">
<g clip-path="url(#clip0_574_1809)">
<path d="M9.71316 28.1431H20.1092V23.9104C20.1092 22.3585 19.6002 21.0299 18.5823 19.9247C17.5643 18.8195 16.3406 18.2669 14.9112 18.2669C13.4817 18.2669 12.258 18.8195 11.2401 19.9247C10.2221 21.0299 9.71316 22.3585 9.71316 23.9104V28.1431ZM4.51514 30.9649V28.1431H7.11415V23.9104C7.11415 22.476 7.42278 21.1298 8.04004 19.8718C8.65731 18.6137 9.51823 17.6085 10.6228 16.856C9.51823 16.1035 8.65731 15.0982 8.04004 13.8402C7.42278 12.5822 7.11415 11.2359 7.11415 9.80153V5.56885H4.51514V2.74707H25.3072V5.56885H22.7082V9.80153C22.7082 11.2359 22.3996 12.5822 21.7823 13.8402C21.165 15.0982 20.3041 16.1035 19.1995 16.856C20.3041 17.6085 21.165 18.6137 21.7823 19.8718C22.3996 21.1298 22.7082 22.476 22.7082 23.9104V28.1431H25.3072V30.9649H4.51514Z" fill="#D0B447"/>
<path d="M27.6827 15.2227L17.8807 25.0246L13.4253 20.5692" stroke="#009951" stroke-width="2.22772" stroke-linecap="round" stroke-linejoin="round"/>
</g>
<defs>
<clipPath id="clip0_574_1809">
<rect width="31.1881" height="33.8614" fill="white" transform="translate(0.059082 0.0742188)"/>
</clipPath>
</defs>
</svg>
