<svg width="122" height="118" viewBox="0 0 122 118" fill="none" xmlns="http://www.w3.org/2000/svg">
<g clip-path="url(#clip0_370_400)">
<path d="M81.1611 103.087V93.2694C81.1611 88.0617 79.0234 83.0672 75.2182 79.3848C71.4131 75.7024 66.2522 73.6337 60.8709 73.6337H25.363C19.9817 73.6337 14.8208 75.7024 11.0156 79.3848C7.21047 83.0672 5.07275 88.0617 5.07275 93.2694V103.087M86.2337 53.998L96.3788 63.8158L116.669 44.1801M63.4072 34.3623C63.4072 45.2068 54.3229 53.998 43.1169 53.998C31.9109 53.998 22.8267 45.2068 22.8267 34.3623C22.8267 23.5178 31.9109 14.7266 43.1169 14.7266C54.3229 14.7266 63.4072 23.5178 63.4072 34.3623Z" stroke="#D0B447" stroke-width="9.81785" stroke-linecap="round" stroke-linejoin="round"/>
</g>
<defs>
<clipPath id="clip0_370_400">
<rect width="121.741" height="117.814" fill="white"/>
</clipPath>
</defs>
</svg>
