<svg width="35" height="35" viewBox="0 0 35 35" fill="none" xmlns="http://www.w3.org/2000/svg">
<path d="M34.3689 17.5651C34.3689 26.9179 26.7871 34.4998 17.4345 34.4998C8.08182 34.4998 0.5 26.9179 0.5 17.5651C0.5 8.21229 8.08182 0.630371 17.4345 0.630371C26.7871 0.630371 34.3689 8.21229 34.3689 17.5651Z" fill="#D0B447" stroke="#F0C82D"/>
<path d="M34.9998 17.4347C34.9998 27.0636 27.1941 34.8694 17.5653 34.8694C7.93653 34.8694 0.130859 27.0636 0.130859 17.4347C0.130859 7.80578 7.93653 0 17.5653 0C27.1941 0 34.9998 7.80578 34.9998 17.4347ZM2.57168 17.4347C2.57168 25.7156 9.28456 32.4285 17.5653 32.4285C25.8461 32.4285 32.5589 25.7156 32.5589 17.4347C32.5589 9.15383 25.8461 2.44086 17.5653 2.44086C9.28456 2.44086 2.57168 9.15383 2.57168 17.4347Z" fill="url(#paint0_linear_370_356)"/>
<g clip-path="url(#clip0_370_356)">
<path d="M10.2065 11.2124L21.7898 13.9979L22.9881 19.9669L18.9939 23.9463L13.0025 22.7525L10.2065 11.2124ZM10.2065 11.2124L16.2666 17.2498M18.195 24.7421L23.7869 19.1711L26.1835 21.5587L20.5916 27.1297L18.195 24.7421ZM18.9939 18.3752C18.9939 19.2543 18.2785 19.9669 17.3962 19.9669C16.5138 19.9669 15.7985 19.2543 15.7985 18.3752C15.7985 17.4961 16.5138 16.7835 17.3962 16.7835C18.2785 16.7835 18.9939 17.4961 18.9939 18.3752Z" stroke="#977A1A" stroke-width="2" stroke-linecap="round" stroke-linejoin="round"/>
</g>
<defs>
<linearGradient id="paint0_linear_370_356" x1="17.5653" y1="0" x2="17.5653" y2="34.8694" gradientUnits="userSpaceOnUse">
<stop stop-color="#F7E77B"/>
<stop offset="1" stop-color="#BF6F16"/>
</linearGradient>
<clipPath id="clip0_370_356">
<rect x="8.60889" y="9.62061" width="19.1723" height="19.1008" rx="2" fill="white"/>
</clipPath>
</defs>
</svg>
