<svg width="32" height="34" viewBox="0 0 32 34" fill="none" xmlns="http://www.w3.org/2000/svg">
<path d="M9.65407 28.0689H20.0501V23.8362C20.0501 22.2842 19.5411 20.9556 18.5232 19.8505C17.5053 18.7453 16.2815 18.1927 14.8521 18.1927C13.4226 18.1927 12.1989 18.7453 11.181 19.8505C10.163 20.9556 9.65407 22.2842 9.65407 23.8362V28.0689ZM4.45605 30.8907V28.0689H7.05506V23.8362C7.05506 22.4018 7.3637 21.0556 7.98096 19.7975C8.59823 18.5395 9.45915 17.5342 10.5637 16.7818C9.45915 16.0293 8.59823 15.024 7.98096 13.766C7.3637 12.5079 7.05506 11.1617 7.05506 9.72731V5.49463H4.45605V2.67285H25.2481V5.49463H22.6491V9.72731C22.6491 11.1617 22.3405 12.5079 21.7232 13.766C21.106 15.024 20.245 16.0293 19.1405 16.7818C20.245 17.5342 21.106 18.5395 21.7232 19.7975C22.3405 21.0556 22.6491 22.4018 22.6491 23.8362V28.0689H25.2481V30.8907H4.45605Z" fill="#D0B447"/>
<path d="M17 26.7925L23.4279 19.132" stroke="#940203" stroke-width="2" stroke-linecap="round"/>
<path d="M17.1514 19L23.5792 26.6604" stroke="#940203" stroke-width="2" stroke-linecap="round"/>
</svg>
