<svg width="35" height="35" viewBox="0 0 35 35" fill="none" xmlns="http://www.w3.org/2000/svg">
<circle cx="17.5" cy="17.5" r="16.5" fill="#D0B447" stroke="#F0C82D" stroke-width="2"/>
<mask id="path-2-inside-1_356_1055" fill="white">
<path d="M24.3531 14.8957C25.3848 14.4976 25.9128 13.3209 25.3046 12.3967C24.5026 11.1779 23.4248 10.1514 22.1469 9.406C20.2868 8.32086 18.1126 7.89535 15.9786 8.19882C13.8447 8.50229 11.8768 9.51684 10.3957 11.0771C8.91454 12.6374 8.00752 14.6515 7.82241 16.7911C7.6373 18.9307 8.18502 21.0696 9.37629 22.8594C10.5676 24.6492 12.3322 25.9842 14.3825 26.647C16.4329 27.3098 18.6481 27.2612 20.6672 26.5092C22.0539 25.9927 23.292 25.1653 24.2914 24.1015C25.0493 23.2948 24.7292 22.0431 23.779 21.4737L20.8418 19.7136C19.4126 18.8572 19.5941 16.7322 21.1476 16.1327L24.3531 14.8957Z"/>
</mask>
<path d="M24.3531 14.8957C25.3848 14.4976 25.9128 13.3209 25.3046 12.3967C24.5026 11.1779 23.4248 10.1514 22.1469 9.406C20.2868 8.32086 18.1126 7.89535 15.9786 8.19882C13.8447 8.50229 11.8768 9.51684 10.3957 11.0771C8.91454 12.6374 8.00752 14.6515 7.82241 16.7911C7.6373 18.9307 8.18502 21.0696 9.37629 22.8594C10.5676 24.6492 12.3322 25.9842 14.3825 26.647C16.4329 27.3098 18.6481 27.2612 20.6672 26.5092C22.0539 25.9927 23.292 25.1653 24.2914 24.1015C25.0493 23.2948 24.7292 22.0431 23.779 21.4737L20.8418 19.7136C19.4126 18.8572 19.5941 16.7322 21.1476 16.1327L24.3531 14.8957Z" stroke="#977A1A" stroke-width="4" mask="url(#path-2-inside-1_356_1055)"/>
<path d="M35 17.5C35 27.165 27.165 35 17.5 35C7.83502 35 0 27.165 0 17.5C0 7.83502 7.83502 0 17.5 0C27.165 0 35 7.83502 35 17.5ZM2.45 17.5C2.45 25.8119 9.18811 32.55 17.5 32.55C25.8119 32.55 32.55 25.8119 32.55 17.5C32.55 9.18811 25.8119 2.45 17.5 2.45C9.18811 2.45 2.45 9.18811 2.45 17.5Z" fill="url(#paint0_linear_356_1055)"/>
<defs>
<linearGradient id="paint0_linear_356_1055" x1="17.5" y1="0" x2="17.5" y2="35" gradientUnits="userSpaceOnUse">
<stop stop-color="#F7E77B"/>
<stop offset="1" stop-color="#BF6F16"/>
</linearGradient>
</defs>
</svg>
