<svg width="268" height="42" viewBox="0 0 268 42" fill="none" xmlns="http://www.w3.org/2000/svg">
<g clip-path="url(#clip0_466_1616)">
<path d="M266.106 25.3827C266.106 26.9744 266.184 28.3632 266.34 29.5491C266.496 30.7351 266.73 31.9991 267.042 33.3411C267.416 35.0888 267.651 36.462 267.744 37.4607H258.335L245.695 7.78064V25.3827C245.695 26.9432 245.773 28.2852 245.929 29.4087C246.116 30.5322 246.366 31.8274 246.678 33.2943C247.052 35.1356 247.286 36.5244 247.38 37.4607H242.652C242.745 36.5244 242.98 35.1356 243.354 33.2943C243.666 31.8274 243.9 30.5322 244.056 29.4087C244.244 28.2852 244.337 26.9432 244.337 25.3827V16.7689C244.337 15.1773 244.244 13.8196 244.056 12.6961C243.9 11.5726 243.666 10.2774 243.354 8.81055C242.98 7.06283 242.745 5.68962 242.652 4.69092H252.155L264.748 34.2774V16.7689C264.748 15.1773 264.654 13.8196 264.467 12.6961C264.311 11.5726 264.077 10.2774 263.765 8.81055C263.39 7.06283 263.156 5.68962 263.063 4.69092H267.744C267.651 5.56478 267.416 6.93799 267.042 8.81055C266.73 10.1838 266.496 11.4477 266.34 12.6025C266.184 13.7572 266.106 15.146 266.106 16.7689V25.3827Z" fill="#FFF1E6"/>
<path d="M227.461 37.9758C224.153 37.9758 221.485 37.4141 219.456 36.2905C217.459 35.1358 215.992 33.3413 215.056 30.9069C214.12 28.4726 213.651 25.2424 213.651 21.2164C213.651 17.1904 214.12 13.9603 215.056 11.5259C215.992 9.09162 217.459 7.31268 219.456 6.18915C221.485 5.0344 224.153 4.45703 227.461 4.45703C230.77 4.45703 233.422 5.0344 235.42 6.18915C237.417 7.31268 238.884 9.09162 239.82 11.5259C240.757 13.9603 241.225 17.1904 241.225 21.2164C241.225 25.2424 240.757 28.4726 239.82 30.9069C238.884 33.3413 237.417 35.1358 235.42 36.2905C233.422 37.4141 230.77 37.9758 227.461 37.9758ZM227.461 36.8055C229.584 36.8055 231.113 35.6039 232.049 33.2008C232.986 30.7665 233.454 26.7717 233.454 21.2164C233.454 15.6924 232.986 11.7288 232.049 9.32569C231.113 6.89136 229.584 5.6742 227.461 5.6742C226.026 5.6742 224.871 6.20475 223.997 7.26587C223.123 8.29578 222.484 9.94987 222.078 12.2282C221.672 14.5064 221.469 17.5025 221.469 21.2164C221.469 24.9616 221.672 27.9733 222.078 30.2515C222.484 32.4986 223.123 34.1527 223.997 35.2138C224.871 36.2749 226.026 36.8055 227.461 36.8055Z" fill="#FFF1E6"/>
<path d="M210.551 25.3827C210.551 26.9432 210.629 28.2852 210.785 29.4087C210.973 30.5322 211.222 31.8274 211.534 33.2943C211.909 35.1356 212.143 36.5244 212.237 37.4607H203.108C203.202 36.5244 203.436 35.1356 203.81 33.2943C204.122 31.8274 204.356 30.5322 204.512 29.4087C204.7 28.2852 204.793 26.9432 204.793 25.3827V16.7689C204.793 15.1773 204.7 13.8196 204.512 12.6961C204.356 11.5726 204.122 10.2774 203.81 8.81055C203.436 7.06283 203.202 5.68962 203.108 4.69092H212.237C212.143 5.68962 211.909 7.06283 211.534 8.81055C211.222 10.2774 210.973 11.5726 210.785 12.6961C210.629 13.8196 210.551 15.1773 210.551 16.7689V25.3827Z" fill="#FFF1E6"/>
<path d="M201.681 12.4148L191.382 7.35889V25.3823C191.382 26.9427 191.46 28.2847 191.616 29.4083C191.803 30.5318 192.053 31.827 192.365 33.2938C192.74 35.1352 192.974 36.524 193.067 37.4603H183.938C184.032 36.524 184.266 35.1352 184.641 33.2938C184.953 31.827 185.187 30.5318 185.343 29.4083C185.53 28.2847 185.624 26.9427 185.624 25.3823V7.21845L175.325 12.4148V4.7373H201.681V12.4148Z" fill="#FFF1E6"/>
<path d="M172.24 25.3827C172.24 26.9432 172.318 28.2852 172.474 29.4087C172.661 30.5322 172.911 31.8274 173.223 33.2943C173.597 35.1356 173.831 36.5244 173.925 37.4607H164.796C164.89 36.5244 165.124 35.1356 165.499 33.2943C165.811 31.8274 166.045 30.5322 166.201 29.4087C166.388 28.2852 166.482 26.9432 166.482 25.3827V16.7689C166.482 15.1773 166.388 13.8196 166.201 12.6961C166.045 11.5726 165.811 10.2774 165.499 8.81055C165.124 7.06283 164.89 5.68962 164.796 4.69092H173.925C173.831 5.68962 173.597 7.06283 173.223 8.81055C172.911 10.2774 172.661 11.5726 172.474 12.6961C172.318 13.8196 172.24 15.1773 172.24 16.7689V25.3827Z" fill="#FFF1E6"/>
<path d="M163.375 21.0758C163.375 25.0082 162.907 28.1759 161.97 30.5791C161.065 32.951 159.614 34.6831 157.617 35.7754C155.619 36.8677 152.982 37.4295 149.705 37.4607H136.27C136.363 36.5244 136.597 35.1356 136.972 33.2943C137.284 31.8274 137.518 30.5322 137.674 29.4087C137.861 28.2852 137.955 26.9432 137.955 25.3827V16.7689C137.955 15.1773 137.861 13.8196 137.674 12.6961C137.518 11.5726 137.284 10.2774 136.972 8.81055C136.597 7.06283 136.363 5.68962 136.27 4.69092H149.705C152.982 4.72213 155.619 5.28389 157.617 6.37622C159.614 7.46855 161.065 9.21627 161.97 11.6194C162.907 13.9913 163.375 17.1434 163.375 21.0758ZM149.612 36.2904C151.453 36.2904 152.935 35.7754 154.059 34.7455C155.182 33.7156 156.009 32.0927 156.54 29.8768C157.071 27.661 157.336 24.7273 157.336 21.0758C157.336 17.4243 157.071 14.4906 156.54 12.2748C156.009 10.0589 155.182 8.43604 154.059 7.40613C152.935 6.34501 151.453 5.81445 149.612 5.81445H147.926C146.272 5.81445 145.149 6.32941 144.556 7.35932C143.994 8.35802 143.713 10.0433 143.713 12.4152V29.7364C143.713 32.1083 143.994 33.7936 144.556 34.7923C145.149 35.791 146.272 36.2904 147.926 36.2904H149.612Z" fill="#FFF1E6"/>
<path d="M134.232 7.49976C133.295 7.40613 131.938 7.17206 130.159 6.79755C128.786 6.48546 127.615 6.25139 126.648 6.09534C125.68 5.93929 124.526 5.84566 123.184 5.81445C121.748 5.90808 120.765 6.45425 120.234 7.45294C119.704 8.42043 119.423 9.9809 119.392 12.1343C119.423 14.1005 119.641 15.583 120.047 16.5817C120.484 17.5492 121.28 18.1577 122.435 18.4074C123.09 18.3138 124.338 18.0797 126.18 17.7052C127.803 17.2995 129.207 17.0498 130.393 16.9562V21.1694C129.051 21.0446 127.693 20.8105 126.32 20.4672C124.323 20.0927 122.981 19.8586 122.294 19.765C121.171 20.0147 120.406 20.6545 120 21.6844C119.595 22.6831 119.392 24.1967 119.392 26.2254V29.7364C119.392 32.0147 119.641 33.6532 120.141 34.6519C120.671 35.6506 121.67 36.1967 123.137 36.2904C124.51 36.2591 125.712 36.1655 126.741 36.0095C127.771 35.8534 128.911 35.635 130.159 35.3541C131.938 34.9796 133.295 34.7455 134.232 34.6519V37.4607H111.948C112.042 36.5244 112.276 35.1356 112.65 33.2943C112.963 31.8274 113.197 30.5322 113.353 29.4087C113.54 28.2852 113.634 26.9432 113.634 25.3827V16.7689C113.634 15.1773 113.54 13.8196 113.353 12.6961C113.197 11.5726 112.963 10.2774 112.65 8.81055C112.276 7.06283 112.042 5.68962 111.948 4.69092H134.232V7.49976Z" fill="#FFF1E6"/>
<path d="M110.513 14.1473C110.513 17.518 109.655 19.9367 107.938 21.4035C106.222 22.8703 103.366 23.6194 99.3715 23.6506H95.6732C94.3 23.6506 93.3013 23.9939 92.6771 24.6805C92.0529 25.3671 91.6628 26.4594 91.5068 27.9575C91.6628 29.7052 91.9593 31.4841 92.3962 33.2943C92.7708 35.1668 93.0048 36.5556 93.0985 37.4607H83.9697C84.0634 36.5244 84.2974 35.1356 84.6719 33.2943C84.984 31.8274 85.2181 30.5322 85.3741 29.4087C85.5614 28.2852 85.655 26.9432 85.655 25.3827V16.7689C85.655 15.1773 85.5614 13.8196 85.3741 12.6961C85.2181 11.5726 84.984 10.2774 84.6719 8.81055C84.2974 7.06283 84.0634 5.68962 83.9697 4.69092H99.3247C103.32 4.72213 106.175 5.47115 107.892 6.93799C109.639 8.40483 110.513 10.8079 110.513 14.1473ZM99.1843 22.4802C100.87 22.4802 102.071 21.856 102.789 20.6077C103.507 19.3281 103.866 17.1746 103.866 14.1473C103.866 11.12 103.507 8.9822 102.789 7.73383C102.071 6.45424 100.87 5.81445 99.1843 5.81445H95.6732C94.0191 5.81445 92.8956 6.32941 92.3026 7.35932C91.7096 8.35802 91.4131 10.0433 91.4131 12.4152V15.9263C91.4131 18.2982 91.7096 19.9835 92.3026 20.9822C92.8956 21.9809 94.0191 22.4802 95.6732 22.4802H99.1843Z" fill="#FFF1E6"/>
<path d="M73.4594 19.016C76.2682 19.9211 78.3904 21.9341 79.8261 25.055C81.2617 28.1447 81.9795 32.28 81.9795 37.4607H73.8807C73.8807 31.5621 73.5374 27.0992 72.8508 24.0719C72.1642 21.0446 71.1499 19.531 69.8079 19.531C68.4659 19.531 67.4516 21.0446 66.765 24.0719C66.0784 27.0992 65.7351 31.5621 65.7351 37.4607H57.6362C57.6362 32.28 58.354 28.1447 59.7897 25.055C61.2253 21.9653 63.3475 19.9679 66.1564 19.0628C63.6284 18.3138 61.7247 16.7377 60.4451 14.3346C59.1655 11.9003 58.5257 8.68571 58.5257 4.69092H64.8924C64.7988 9.21627 65.1577 12.6493 65.9691 14.99C66.8118 17.3307 68.0914 18.501 69.8079 18.501C71.5244 18.501 72.7884 17.3307 73.5998 14.99C74.4425 12.6493 74.817 9.21627 74.7233 4.69092H81.09C81.09 8.68571 80.4502 11.9003 79.1707 14.3346C77.8911 16.7377 75.9873 18.2982 73.4594 19.016Z" fill="#FFF1E6"/>
<path d="M55.3699 7.49976C54.4336 7.40613 53.076 7.17206 51.2971 6.79755C49.9239 6.48546 48.7535 6.25139 47.786 6.09534C46.8185 5.93929 45.6638 5.84566 44.3218 5.81445C42.8862 5.90808 41.9031 6.45425 41.3725 7.45294C40.8419 8.42043 40.5611 9.9809 40.5299 12.1343C40.5611 14.1005 40.7795 15.583 41.1852 16.5817C41.6222 17.5492 42.418 18.1577 43.5728 18.4074C44.2282 18.3138 45.4765 18.0797 47.3179 17.7052C48.9408 17.2995 50.3452 17.0498 51.5311 16.9562V21.1694C50.1891 21.0446 48.8315 20.8105 47.4583 20.4672C45.4609 20.0927 44.1189 19.8586 43.4323 19.765C42.3088 20.0147 41.5442 20.6545 41.1384 21.6844C40.7327 22.6831 40.5299 24.1967 40.5299 26.2254V29.7364C40.5299 32.0147 40.7795 33.6532 41.2789 34.6519C41.8094 35.6506 42.8081 36.1967 44.275 36.2904C45.6482 36.2591 46.8497 36.1655 47.8796 36.0095C48.9096 35.8534 50.0487 35.635 51.2971 35.3541C53.076 34.9796 54.4336 34.7455 55.3699 34.6519V37.4607H33.0864C33.1801 36.5244 33.4141 35.1356 33.7886 33.2943C34.1007 31.8274 34.3348 30.5322 34.4908 29.4087C34.6781 28.2852 34.7717 26.9432 34.7717 25.3827V16.7689C34.7717 15.1773 34.6781 13.8196 34.4908 12.6961C34.3348 11.5726 34.1007 10.2774 33.7886 8.81055C33.4141 7.06283 33.1801 5.68962 33.0864 4.69092H55.3699V7.49976Z" fill="#FFF1E6"/>
<g clip-path="url(#clip1_466_1616)">
<path d="M37.1257 2.19198C37.0425 2.19465 36.9589 2.20319 36.8749 2.21707C35.4182 2.4579 33.85 4.28723 32.5004 4.27455C18.6625 4.14459 21.1786 15.8365 21.1786 15.8365C21.1786 15.8365 19.0789 17.4536 19.3051 18.5211C19.5229 19.5484 22.0011 20.1511 22.0011 20.1511C22.0011 20.1511 26.931 23.5827 25.5183 24.9901C18.8676 31.6161 5.43843 36.8402 5.43843 36.8402L47.3333 37.526L43.6861 32.4555C43.6861 32.4555 45.223 32.1601 45.2458 31.5613C45.3221 29.5557 41.9481 29.2715 40.2648 28.1783C38.433 26.9885 37.8014 24.4137 37.8014 24.4137C37.8014 24.4137 41.8693 23.0868 41.8691 21.7918L46.5133 16.2532C46.4788 16.2583 46.4443 16.2634 46.4097 16.2678C46.2178 16.2919 46.1935 16.0978 46.3855 16.074C46.4937 16.0606 46.6009 16.0417 46.7079 16.0211L46.8202 15.8873C46.7679 15.8672 46.7461 15.825 46.7552 15.7862C46.6935 15.7661 46.6319 15.7455 46.5705 15.7243C46.4155 15.6694 46.264 15.6054 46.1133 15.5397C45.9692 15.4768 45.9938 15.3468 46.1032 15.3418C46.1284 15.3405 46.1582 15.3461 46.1915 15.3606C46.3374 15.4244 46.4842 15.4864 46.6344 15.5397C46.7521 15.5804 46.8704 15.6198 46.9897 15.6552C46.9952 15.6533 46.9931 15.6542 47.0027 15.6507C47.0119 15.6461 47.0209 15.6415 47.0301 15.637L47.0817 15.5756C47.0076 15.5301 46.9336 15.4845 46.8589 15.4398C44.1579 14.4779 43.8672 13.2681 43.9229 12.4912C44.1707 9.03138 38.8189 5.23551 38.8189 5.23551C38.8189 5.23551 38.7739 2.79022 37.8616 2.34642C37.6214 2.22959 37.3755 2.18401 37.1257 2.19198Z" fill="#FFF1E6" stroke="#940203" stroke-width="1.5698"/>
<path d="M26.4844 13.675C29.5379 14.2254 31.4897 14.7152 33.9038 15.1184C35.6674 15.4129 36.1568 15.14 35.0721 15.4931C33.6704 15.9493 36.4175 17.4541 32.4795 16.3446C30.3739 15.7514 28.5894 14.8346 26.4844 13.675Z" fill="url(#paint0_linear_466_1616)" stroke="#940203" stroke-width="1.5698"/>
<path d="M38.517 16.3023C38.517 16.3023 38.3874 11.7271 35.3348 14.7367C32.2821 17.7464 36.9229 16.5984 36.9229 16.5984L36.9341 13.8511C36.9341 13.8511 37.5231 14.2179 37.7252 14.4901C38.1133 15.013 38.4602 16.3002 38.4602 16.3002" fill="#241C1C"/>
<path d="M38.517 16.3023C38.517 16.3023 38.3874 11.7271 35.3348 14.7367C32.2821 17.7464 36.9229 16.5984 36.9229 16.5984L36.9341 13.8511C36.9341 13.8511 37.5231 14.2179 37.7252 14.4901C38.1133 15.013 38.4602 16.3002 38.4602 16.3002" stroke="#940203" stroke-width="1.5698"/>
<path d="M36.5053 10.7189C37.7003 10.2386 40.1453 11.9808 39.3103 12.4142C38.8294 12.6638 37.4354 11.8241 36.836 11.3248C36.6324 11.1551 36.1925 10.8446 36.5053 10.7189Z" fill="#2B2200" stroke="#940203" stroke-width="1.5698"/>
<path d="M43.9517 13.3229C42.5705 13.7273 43.0203 16.5861 40.1547 18.7344C39.2058 19.4459 40.8609 21.2619 41.899 21.8357C43.1483 22.5262 47.6684 21.1003 48.7063 21.372C50.3287 21.7968 53.6823 23.5466 54.0021 23.1601C54.1722 22.9546 55.165 20.4208 51.5118 17.7168C49.3702 16.1316 44.7776 15.0156 43.9517 13.3229Z" fill="#EF7B49" stroke="#940203" stroke-width="1.5698"/>
<path d="M19.5567 36.8921L31.6382 27.9799C31.6382 27.9799 34.4341 32.6439 29.8139 35.0646C26.5934 36.752 19.5567 36.8921 19.5567 36.8921Z" fill="url(#paint1_linear_466_1616)" stroke="#940203" stroke-width="1.5698"/>
<path d="M5.07385 36.9686L25.818 24.4663C25.818 24.4663 32.5538 24.51 31.749 30.0034C30.3207 39.7515 5.07385 36.9686 5.07385 36.9686Z" fill="url(#paint2_linear_466_1616)" stroke="#940203" stroke-width="1.5698"/>
<path d="M35.7307 22.7488C38.0212 22.5632 39.7774 21.171 39.6532 19.6392C39.5291 18.1074 37.5716 17.0161 35.2811 17.2017C32.9906 17.3874 31.2344 18.7796 31.3586 20.3114C31.4827 21.8432 33.4401 22.9344 35.7307 22.7488Z" fill="url(#paint3_radial_466_1616)" stroke="#940203" stroke-width="1.5698"/>
<path d="M25.5183 24.9901C26.9309 23.5827 22.0012 20.1511 22.0012 20.1511C22.0012 20.1511 19.5229 19.5484 19.3051 18.5211C19.0789 17.4536 21.1786 15.8365 21.1786 15.8365C21.1786 15.8365 18.6624 4.14463 32.5004 4.27459C34.1615 4.29019 36.1538 1.51555 37.8615 2.34633C38.7738 2.79015 38.8189 5.23548 38.8189 5.23548C38.8189 5.23548 44.1706 9.03137 43.9228 12.4912C43.8653 13.294 44.1532 14.5614 47.1138 15.5373L41.8692 21.7918C41.8694 23.0868 37.8015 24.4138 37.8015 24.4138C37.8015 24.4138 38.4329 26.9885 40.2647 28.1783C41.948 29.2715 45.322 29.5558 45.2457 31.5614C45.2229 32.1602 43.6861 32.4555 43.6861 32.4555L47.3333 37.526L5.43843 36.8403C5.43843 36.8403 18.8675 31.6161 25.5183 24.9901Z" fill="#FFF1E6"/>
<path d="M26.4844 13.675C29.5379 14.2254 31.4897 14.7152 33.9038 15.1184C35.6674 15.4129 36.1568 15.14 35.0721 15.4931C33.6704 15.9493 36.4175 17.4541 32.4795 16.3446C30.3739 15.7514 28.5894 14.8346 26.4844 13.675Z" fill="url(#paint4_linear_466_1616)"/>
<path d="M38.517 16.3023C38.517 16.3023 38.3874 11.7271 35.3348 14.7367C32.2821 17.7464 36.9229 16.5984 36.9229 16.5984L36.9341 13.8511C36.9341 13.8511 37.5231 14.2179 37.7252 14.4901C38.1133 15.013 38.4602 16.3002 38.4602 16.3002" fill="#241C1C"/>
<path d="M36.5053 10.7189C37.7003 10.2386 40.1453 11.9808 39.3103 12.4142C38.8294 12.6638 37.4354 11.8241 36.836 11.3248C36.6324 11.1551 36.1925 10.8446 36.5053 10.7189Z" fill="#2B2200"/>
<path d="M43.9517 13.3229C42.5705 13.7273 43.0203 16.5861 40.1547 18.7344C39.2058 19.4459 40.8609 21.2619 41.899 21.8357C43.1483 22.5262 47.6684 21.1003 48.7063 21.372C50.3287 21.7968 53.6823 23.5466 54.0021 23.1601C54.1722 22.9546 55.165 20.4208 51.5118 17.7168C49.3702 16.1316 44.7776 15.0156 43.9517 13.3229Z" fill="#EF7B49"/>
<path d="M19.5567 36.8921L31.6382 27.9799C31.6382 27.9799 34.4341 32.6439 29.8139 35.0646C26.5934 36.752 19.5567 36.8921 19.5567 36.8921Z" fill="url(#paint5_linear_466_1616)"/>
<path d="M5.07385 36.9686L25.818 24.4663C25.818 24.4663 32.5538 24.51 31.749 30.0034C30.3207 39.7515 5.07385 36.9686 5.07385 36.9686Z" fill="url(#paint6_linear_466_1616)"/>
<path d="M35.7307 22.7488C38.0212 22.5632 39.7774 21.171 39.6532 19.6392C39.5291 18.1074 37.5716 17.0161 35.2811 17.2017C32.9906 17.3874 31.2344 18.7796 31.3586 20.3114C31.4827 21.8432 33.4401 22.9344 35.7307 22.7488Z" fill="url(#paint7_radial_466_1616)"/>
<path d="M19.2735 18.2596C19.7343 17.1243 22.8983 18.8689 22.8983 18.8689L24.3364 21.8131L21.9912 20.137C21.9912 20.137 18.8595 19.2798 19.2735 18.2596Z" fill="url(#paint8_linear_466_1616)"/>
<path d="M44.0616 33.4244L40.2896 30.96L44.9543 31.8335L43.6939 32.3034L44.0616 33.4244Z" fill="url(#paint9_linear_466_1616)"/>
<path d="M38.5686 3.66429L36.0225 5.5505L39.3263 5.67425L38.8992 5.23059L38.5686 3.66429Z" fill="url(#paint10_linear_466_1616)"/>
<path opacity="0.479524" d="M41.8217 21.8539C39.8235 20.436 39.8614 19.264 39.8614 19.264L48.4866 21.315C48.4866 21.315 42.6185 22.4193 41.8217 21.8539Z" fill="url(#paint11_linear_466_1616)"/>
</g>
</g>
<defs>
<linearGradient id="paint0_linear_466_1616" x1="26.6338" y1="15.5194" x2="35.6045" y2="14.7924" gradientUnits="userSpaceOnUse">
<stop stop-color="#936F6F" stop-opacity="0.225653"/>
<stop offset="1" stop-color="#302727"/>
</linearGradient>
<linearGradient id="paint1_linear_466_1616" x1="26.8555" y1="30.886" x2="32.8838" y2="36.1536" gradientUnits="userSpaceOnUse">
<stop stop-color="#FFE1C9"/>
<stop offset="1" stop-color="#FFE1C9" stop-opacity="0"/>
</linearGradient>
<linearGradient id="paint2_linear_466_1616" x1="4.91832" y1="32.4737" x2="27.2315" y2="30.6655" gradientUnits="userSpaceOnUse">
<stop stop-color="#241F1C"/>
<stop offset="1" stop-color="#FFEDE4"/>
</linearGradient>
<radialGradient id="paint3_radial_466_1616" cx="0" cy="0" r="1" gradientUnits="userSpaceOnUse" gradientTransform="translate(35.5059 19.9753) rotate(-4.63305) scale(4.16093 2.78262)">
<stop stop-color="#FFE1C9"/>
<stop offset="1" stop-color="#FFD4B3" stop-opacity="0"/>
</radialGradient>
<linearGradient id="paint4_linear_466_1616" x1="26.6338" y1="15.5194" x2="35.6045" y2="14.7924" gradientUnits="userSpaceOnUse">
<stop stop-color="#936F6F" stop-opacity="0.225653"/>
<stop offset="1" stop-color="#302727"/>
</linearGradient>
<linearGradient id="paint5_linear_466_1616" x1="26.8555" y1="30.886" x2="32.8838" y2="36.1536" gradientUnits="userSpaceOnUse">
<stop stop-color="#FFE1C9"/>
<stop offset="1" stop-color="#FFE1C9" stop-opacity="0"/>
</linearGradient>
<linearGradient id="paint6_linear_466_1616" x1="4.91832" y1="32.4737" x2="27.2315" y2="30.6655" gradientUnits="userSpaceOnUse">
<stop stop-color="#241F1C"/>
<stop offset="1" stop-color="#FFEDE4"/>
</linearGradient>
<radialGradient id="paint7_radial_466_1616" cx="0" cy="0" r="1" gradientUnits="userSpaceOnUse" gradientTransform="translate(35.5059 19.9753) rotate(-4.63305) scale(4.16093 2.78262)">
<stop stop-color="#FFE1C9"/>
<stop offset="1" stop-color="#FFD4B3" stop-opacity="0"/>
</radialGradient>
<linearGradient id="paint8_linear_466_1616" x1="18.033" y1="24.8739" x2="23.5234" y2="16.2885" gradientUnits="userSpaceOnUse">
<stop stop-color="#FFE1C9"/>
<stop offset="1" stop-color="#FFE1C9" stop-opacity="0"/>
</linearGradient>
<linearGradient id="paint9_linear_466_1616" x1="48.2837" y1="34.3063" x2="35.3646" y2="29.4044" gradientUnits="userSpaceOnUse">
<stop stop-color="#FFE1C9"/>
<stop offset="1" stop-color="#FFE1C9" stop-opacity="0"/>
</linearGradient>
<linearGradient id="paint10_linear_466_1616" x1="46.1134" y1="2.57527" x2="27.0824" y2="9.127" gradientUnits="userSpaceOnUse">
<stop stop-color="#FFE1C9"/>
<stop offset="1" stop-color="#FFE1C9" stop-opacity="0"/>
</linearGradient>
<linearGradient id="paint11_linear_466_1616" x1="45.3085" y1="17.2845" x2="43.0551" y2="22.8679" gradientUnits="userSpaceOnUse">
<stop stop-color="#D45500"/>
<stop offset="1" stop-color="#EF7B49"/>
</linearGradient>
<clipPath id="clip0_466_1616">
<rect width="267.6" height="41.8125" fill="white" transform="translate(0 0.09375)"/>
</clipPath>
<clipPath id="clip1_466_1616">
<rect width="53.4487" height="37.763" fill="white" transform="translate(0 4.41138) rotate(-4.63305)"/>
</clipPath>
</defs>
</svg>
