<svg width="346" height="173" viewBox="0 0 346 173" fill="none" xmlns="http://www.w3.org/2000/svg">
<path d="M86.9606 64.2767C91.4463 78.1348 81.7013 99.9091 78.7936 93.5316C77.1516 71.9694 65.9655 61.9249 53.2298 61.9249C34.5465 61.9249 25.9849 73.7525 31.8892 92.9472C40.5938 121.245 81.3665 124.063 105.048 113.036C117.113 107.418 139.669 88.8624 139.669 88.8624C139.669 88.8624 126.622 63.551 127.193 42.1678C127.764 20.7847 150.023 0.693359 177.103 0.693359C204.183 0.693359 226.263 20.7777 226.263 42.1678C226.263 63.558 212.857 88.8624 212.857 88.8624C212.857 88.8624 224.979 102.696 243.208 106.934C273.827 114.051 281.187 98.5315 305.393 102.323C325.617 105.491 338.973 118.387 344.735 135.929C350.321 152.938 330.766 184.889 332.163 166.5C333.56 148.111 331.46 144.427 329.132 140.749C326.804 137.072 322.746 131.128 307.022 127.654C291.299 124.181 284.202 131.25 257.084 132.831C229.236 134.454 215.361 119.774 198.526 117.224C181.69 114.674 151.439 111.336 124.563 126.812C97.6873 142.289 53.2801 150.442 18.9304 121.245C-3.26756 102.377 -7.96162 66.2389 20.8865 47.3352C44.8915 31.6051 78.7936 39.0453 86.9606 64.2767Z" fill="#F5EFDD"/>
</svg>
