<svg width="123" height="118" viewBox="0 0 123 118" fill="none" xmlns="http://www.w3.org/2000/svg">
<g clip-path="url(#clip0_370_399)">
<path d="M82.1257 103.087V93.2694C82.1257 88.0617 79.9725 83.0672 76.1398 79.3848C72.3071 75.7024 67.1088 73.6337 61.6885 73.6337H25.9235C20.5032 73.6337 15.3049 75.7024 11.4722 79.3848C7.63952 83.0672 5.48633 88.0617 5.48633 93.2694V103.087M117.891 53.998H87.235M64.2432 34.3623C64.2432 45.2068 55.0931 53.998 43.806 53.998C32.5189 53.998 23.3688 45.2068 23.3688 34.3623C23.3688 23.5178 32.5189 14.7266 43.806 14.7266C55.0931 14.7266 64.2432 23.5178 64.2432 34.3623Z" stroke="#940203" stroke-width="9.81785" stroke-linecap="round" stroke-linejoin="round"/>
</g>
<defs>
<clipPath id="clip0_370_399">
<rect width="122.623" height="117.814" fill="white" transform="translate(0.376953)"/>
</clipPath>
</defs>
</svg>
