<svg width="35" height="35" viewBox="0 0 35 35" fill="none" xmlns="http://www.w3.org/2000/svg">
<circle cx="17.5" cy="17.5" r="17.5" fill="#D0B447"/>
<path d="M35 17.5C35 27.165 27.165 35 17.5 35C7.83502 35 0 27.165 0 17.5C0 7.83502 7.83502 0 17.5 0C27.165 0 35 7.83502 35 17.5ZM2.45 17.5C2.45 25.8119 9.18811 32.55 17.5 32.55C25.8119 32.55 32.55 25.8119 32.55 17.5C32.55 9.18811 25.8119 2.45 17.5 2.45C9.18811 2.45 2.45 9.18811 2.45 17.5Z" fill="url(#paint0_linear_356_1053)"/>
<path d="M20.9212 22.4895L25.8198 17.6092L20.9212 12.729M14.3898 12.729L9.49121 17.6092L14.3898 22.4895" stroke="#977A1A" stroke-width="2" stroke-linecap="round" stroke-linejoin="round"/>
<defs>
<linearGradient id="paint0_linear_356_1053" x1="17.5" y1="0" x2="17.5" y2="35" gradientUnits="userSpaceOnUse">
<stop stop-color="#F7E77B"/>
<stop offset="1" stop-color="#BF6F1A"/>
</linearGradient>
</defs>
</svg>
